<svg xmlns="http://www.w3.org/2000/svg" viewBox="0 0 1400 900">
<defs><linearGradient id="bg" x1="0" y1="0" x2="1" y2="1"><stop offset="0" stop-color="#010109"></stop><stop offset=".56" stop-color="#151126"></stop><stop offset="1" stop-color="#2b2148"></stop></linearGradient><radialGradient id="orb"><stop offset="0" stop-color="#F5E6D7"></stop><stop offset=".42" stop-color="#D99A6C" stop-opacity=".50"></stop><stop offset="1" stop-color="#8AC7C2" stop-opacity="0"></stop></radialGradient></defs>
<rect width="1400" height="900" fill="url(#bg)"></rect>
<g opacity=".45" fill="#F5E6D7"><circle cx="122" cy="140" r="2"></circle><circle cx="245" cy="230" r="1.5"></circle><circle cx="1170" cy="150" r="2.1"></circle><circle cx="1240" cy="710" r="1.8"></circle><circle cx="820" cy="112" r="1.7"></circle><circle cx="188" cy="710" r="2.2"></circle><circle cx="620" cy="800" r="1.6"></circle></g>
<g fill="none" stroke="#F5E6D7" stroke-opacity=".13"><circle cx="700" cy="450" r="350"></circle><circle cx="700" cy="450" r="250"></circle><circle cx="700" cy="450" r="150"></circle><path d="M700 90V810M340 450H1060M455 205L945 695M945 205L455 695"></path></g>
<circle cx="700" cy="450" r="92" fill="url(#orb)"></circle><circle cx="700" cy="450" r="20" fill="#010109" stroke="#F5E6D7" stroke-opacity=".76"></circle>
<g fill="#E0C7AE" stroke="#F5E6D7" stroke-opacity=".35"><circle cx="455" cy="270" r="15"></circle><circle cx="965" cy="235" r="12"></circle><circle cx="1005" cy="575" r="16"></circle><circle cx="485" cy="675" r="13"></circle><circle cx="300" cy="455" r="11"></circle><circle cx="820" cy="710" r="10"></circle></g>
<g font-family="Inter Tight, system-ui" fill="#F5E6D7"><text x="78" y="795" font-size="82" font-weight="650" letter-spacing="-6">map what AI trusts.</text></g>
<g font-family="JetBrains Mono, monospace" font-size="15" letter-spacing="2" fill="#C0AFC6"><text x="472" y="257">REVIEWS</text><text x="980" y="220">PRESS</text><text x="1025" y="565">FORUMS</text><text x="500" y="668">SCHEMA</text><text x="180" y="444">COMPARISONS</text><text x="836" y="700">VIDEO</text></g>
</svg>