<svg xmlns="http://www.w3.org/2000/svg" viewBox="0 0 1400 760">
<defs><linearGradient id="bg" x1="0" y1="0" x2="1" y2="1"><stop offset="0" stop-color="#010109"></stop><stop offset=".55" stop-color="#151126"></stop><stop offset="1" stop-color="#271f3e"></stop></linearGradient><linearGradient id="line" x1="0" y1="0" x2="1" y2="0"><stop offset="0" stop-color="#8AC7C2"></stop><stop offset=".5" stop-color="#D99A6C"></stop><stop offset="1" stop-color="#9B83C5"></stop></linearGradient></defs>
<rect width="1400" height="760" fill="url(#bg)"></rect>
<g opacity=".26" fill="none" stroke="url(#line)" stroke-width="2">
<path d="M0 410C160 310 260 520 420 410S690 285 850 400S1130 520 1400 330"></path>
<path d="M0 465C190 350 300 560 490 450S720 330 910 450S1160 580 1400 390"></path>
<path d="M0 350C180 240 310 465 500 350S760 240 940 355S1160 470 1400 300"></path>
</g>
<g font-family="Inter Tight, system-ui" font-weight="650" letter-spacing="-2" fill="#F5E6D7" opacity=".82">
<text x="92" y="190" font-size="74">Hinglish</text>
<text x="435" y="270" font-size="58" opacity=".58">हिंदी</text>
<text x="730" y="210" font-size="62" opacity=".62">தமிழ்</text>
<text x="930" y="318" font-size="55" opacity=".52">తెలుగు</text>
<text x="220" y="560" font-size="54" opacity=".58">বাংলা</text>
<text x="780" y="585" font-size="68">मराठी</text>
</g>
<g font-family="JetBrains Mono, monospace" fill="#C0AFC6" font-size="18" letter-spacing="3"><text x="92" y="690">VOICE / VIDEO / VERNACULAR ANSWER LAYER</text></g>
</svg>