
<svg width="175" height="36" fill="none" xmlns="http://www.w3.org/2000/svg"><path d="M61.649 29.46C55.874 33.723 47.504 36 40.298 36c-10.105 0-19.202-3.745-26.084-9.974-.54-.49-.056-1.157.593-.775 7.427 4.33 16.61 6.935 26.096 6.935 6.398 0 13.436-1.327 19.907-4.079.977-.416 1.795.642.839 1.352Z" fill="#fff"></path><path d="M64.05 26.707c-.736-.945-4.88-.447-6.74-.226-.566.07-.653-.424-.142-.78 3.3-2.327 8.716-1.655 9.347-.875.632.784-.164 6.224-3.266 8.82-.475.4-.93.187-.718-.342.697-1.743 2.259-5.648 1.519-6.597ZM57.44 9.27V7.006c0-.343.26-.572.571-.572h10.11c.324 0 .583.234.583.572v1.937c-.004.325-.277.75-.761 1.422l-5.238 7.494c1.946-.047 4 .243 5.766 1.24.397.225.506.555.536.88v2.414c0 .33-.363.715-.744.516-3.11-1.634-7.241-1.812-10.68.017-.35.191-.718-.19-.718-.52v-2.293c0-.368.004-.997.372-1.556l6.069-8.72h-5.282c-.324 0-.584-.23-.584-.569ZM20.564 23.387H17.49a.581.581 0 0 1-.55-.525V7.046c0-.317.264-.568.593-.568H20.4a.58.58 0 0 1 .558.529v2.067h.056c.748-1.998 2.154-2.93 4.049-2.93 1.925 0 3.127.932 3.992 2.93.744-1.998 2.436-2.93 4.248-2.93 1.29 0 2.7.533 3.56 1.73.973 1.33.774 3.264.774 4.958l-.004 9.983a.581.581 0 0 1-.593.572h-3.07a.585.585 0 0 1-.554-.572v-8.383c0-.668.06-2.332-.087-2.965-.23-1.062-.917-1.361-1.808-1.361-.744 0-1.523.498-1.838 1.296-.316.798-.286 2.133-.286 3.03v8.383a.581.581 0 0 1-.593.572h-3.07a.582.582 0 0 1-.554-.572l-.005-8.383c0-1.764.29-4.36-1.894-4.36-2.21 0-2.124 2.53-2.124 4.36v8.383a.581.581 0 0 1-.593.572ZM77.407 6.144c4.564 0 7.034 3.927 7.034 8.92 0 4.825-2.73 8.652-7.034 8.652-4.481 0-6.92-3.927-6.92-8.82 0-4.924 2.47-8.752 6.92-8.752Zm.026 3.23c-2.266 0-2.41 3.094-2.41 5.023 0 1.933-.03 6.06 2.384 6.06 2.384 0 2.496-3.33 2.496-5.358 0-1.335-.056-2.93-.458-4.196-.346-1.1-1.034-1.53-2.012-1.53ZM90.358 23.387h-3.062a.585.585 0 0 1-.554-.572l-.004-15.821a.582.582 0 0 1 .592-.516h2.851a.589.589 0 0 1 .55.442V9.34h.056c.86-2.163 2.067-3.195 4.191-3.195 1.38 0 2.725.499 3.59 1.864.805 1.266.805 3.394.805 4.924v9.956a.591.591 0 0 1-.593.499h-3.084a.583.583 0 0 1-.545-.499v-8.59c0-1.73.2-4.261-1.925-4.261-.748 0-1.436.502-1.778 1.265-.432.967-.488 1.93-.488 2.995v8.518a.592.592 0 0 1-.602.572ZM49.382 15.832v-.668c-2.224 0-4.573.477-4.573 3.104 0 1.33.688 2.232 1.869 2.232.865 0 1.64-.533 2.128-1.4.606-1.066.576-2.068.576-3.268Zm3.101 7.511a.641.641 0 0 1-.727.074c-1.02-.85-1.202-1.244-1.765-2.054-1.687 1.725-2.88 2.24-5.07 2.24-2.586 0-4.602-1.599-4.602-4.802 0-2.501 1.354-4.204 3.28-5.037 1.669-.737 4-.867 5.783-1.07v-.4c0-.732.056-1.599-.372-2.231-.377-.568-1.095-.802-1.726-.802-1.173 0-2.22.602-2.475 1.85-.052.278-.255.551-.532.564l-2.984-.32c-.251-.057-.528-.26-.459-.646.688-3.624 3.954-4.716 6.878-4.716 1.496 0 3.452.398 4.633 1.534 1.496 1.4 1.354 3.268 1.354 5.301v4.803c0 1.443.596 2.076 1.159 2.856.199.277.242.611-.009.82-.627.524-1.743 1.499-2.357 2.045l-.009-.009ZM9.062 15.832v-.668c-2.223 0-4.572.477-4.572 3.104 0 1.33.688 2.232 1.869 2.232.865 0 1.64-.533 2.128-1.4.605-1.066.575-2.068.575-3.268Zm3.102 7.511a.641.641 0 0 1-.727.074c-1.02-.85-1.202-1.244-1.765-2.054-1.687 1.725-2.88 2.24-5.07 2.24C2.016 23.604 0 22.005 0 18.802c0-2.501 1.354-4.204 3.279-5.037 1.67-.737 4.001-.867 5.783-1.07v-.4c0-.732.056-1.599-.372-2.231-.376-.568-1.094-.802-1.726-.802-1.172 0-2.219.602-2.474 1.85-.052.278-.255.551-.532.564l-2.985-.32c-.25-.057-.527-.26-.458-.646.688-3.624 3.953-4.716 6.878-4.716 1.496 0 3.451.398 4.632 1.534 1.497 1.4 1.354 3.268 1.354 5.301v4.803c0 1.443.597 2.076 1.16 2.856.199.277.242.611-.01.82-.626.524-1.742 1.499-2.357 2.045l-.008-.009ZM106.422 10.85h.838c2.095 0 3.867-.323 3.867-3.294 0-2.81-1.837-2.906-3.512-2.906h-1.193v6.2Zm0 3.39v8.461c0 .582-.129.678-.677.678h-2.997c-.547 0-.676-.096-.676-.678V1.938c0-.582.129-.679.676-.679h5.221c2.482 0 7.509.162 7.509 6.233 0 4.165-2.482 5.36-3.674 5.974l4.802 8.622c.096.161.258.42.258.613 0 .194-.323.29-.645.388l-2.707.775a2.17 2.17 0 0 1-.451.064c-.161 0-.419-.387-.741-1l-4.351-8.687h-1.547ZM132.273 23.024l-2.449.807a1.594 1.594 0 0 1-.484.097c-.418 0-.676-.613-1.031-1.905-.87.775-2.385 1.905-4.93 1.905-1.773 0-4.19-.807-4.19-4.714V8.105c0-.452.226-.484.612-.581l2.707-.549c.097 0 .419-.097.516-.097.193 0 .258.13.258.678v10.27c0 1.226.161 2.712 1.805 2.712 1.353 0 2.417-.71 2.836-1.001V8.105c0-.452.225-.484.612-.581l2.707-.549c.097 0 .419-.097.548-.097.161 0 .225.13.225.678v10.075c0 4.554.613 4.295.613 5.038 0 .162-.129.29-.355.355ZM141.477 10.43v12.271c0 .582-.129.678-.677.678h-2.739c-.548 0-.677-.096-.677-.678v-12.27h-2.288c-.547 0-.676-.097-.676-.679V8.105c0-.581.129-.678.676-.678h2.288V6.103c0-3.552 1.29-6.103 5.157-6.103 1.45 0 3.931.517 3.931 1.163a.95.95 0 0 1-.064.29l-.58 2.26c-.032.13-.161.324-.29.324-.355 0-1.031-.55-2.256-.55-1.74 0-1.805 1.066-1.805 2.616v1.324h3.674c.29 0 .548.065.548.323 0 .13-.032.194-.065.323l-.451 1.905c-.096.42-.29.452-.612.452h-3.094ZM160.704 23.024l-2.449.807a1.594 1.594 0 0 1-.484.097c-.418 0-.676-.613-1.031-1.905-.87.775-2.385 1.905-4.93 1.905-1.773 0-4.19-.807-4.19-4.714V8.105c0-.452.226-.484.612-.581l2.707-.549c.097 0 .419-.097.516-.097.193 0 .258.13.258.678v10.27c0 1.226.161 2.712 1.805 2.712 1.353 0 2.417-.71 2.835-1.001V8.105c0-.452.226-.484.613-.581l2.707-.549c.096 0 .419-.097.548-.097.161 0 .225.13.225.678v10.075c0 4.554.613 4.295.613 5.038 0 .162-.129.29-.355.355ZM174.517 8.88l-.742 1.776c-.064.162-.225.291-.257.291-.097 0-1.676-.84-3.739-.84-1.224 0-2.127.453-2.127 1.55 0 1.744 2.901 1.615 5.189 3.133 1.257.84 2.159 2.066 2.159 3.94 0 2.97-2.095 5.198-5.511 5.198-2.384 0-6.058-1.227-6.058-2.099 0-.096.129-.29.161-.42l.709-1.84c.064-.162.129-.29.258-.29s2.61 1.42 4.608 1.42c1.063 0 1.966-.452 1.966-1.614 0-1.873-3.158-1.873-5.285-3.294-.967-.646-1.902-1.776-1.902-3.65 0-2.938 2.224-5.263 5.704-5.263 1.966 0 5.028.84 5.028 1.583 0 .096-.097.29-.161.42Z" fill="#fff"></path></svg>