<svg width="187" height="42" viewBox="0 0 187 42" fill="none" xmlns="http://www.w3.org/2000/svg">
<path d="M56.5024 16.7186C54.9514 16.7186 53.5221 16.3536 52.2144 15.6234C50.9067 14.8933 49.8651 13.895 49.0896 12.6284C48.3293 11.3469 47.9492 9.9239 47.9492 8.35932C47.9492 6.79474 48.3293 5.37917 49.0896 4.11261C49.8651 2.83114 50.9067 1.82534 52.2144 1.09521C53.5221 0.365069 54.9514 0 56.5024 0C57.734 0 58.8821 0.216061 59.9465 0.648184C61.0109 1.08031 61.9004 1.68379 62.6151 2.45862L60.836 4.20201C60.3038 3.62088 59.6652 3.17386 58.9201 2.86094C58.1902 2.54803 57.3767 2.39157 56.4796 2.39157C55.4304 2.39157 54.4496 2.63743 53.5373 3.12916C52.6249 3.62088 51.8951 4.32122 51.3476 5.23016C50.8002 6.13911 50.5265 7.18216 50.5265 8.35932C50.5265 9.53648 50.8002 10.5795 51.3476 11.4885C51.8951 12.3974 52.6249 13.0978 53.5373 13.5895C54.4496 14.0812 55.438 14.3271 56.5024 14.3271C57.4755 14.3271 58.289 14.1855 58.9429 13.9024C59.5967 13.6193 60.1822 13.2393 60.6991 12.7625C61.0337 12.4347 61.315 12.0249 61.5431 11.5332C61.7864 11.0415 61.946 10.505 62.022 9.9239H56.4796V7.68879H64.4397C64.5158 8.10601 64.5538 8.53813 64.5538 8.98515C64.5538 9.9984 64.3941 10.9744 64.0748 11.9132C63.7555 12.837 63.2461 13.6416 62.5466 14.3271C61.0109 15.9215 58.9961 16.7186 56.5024 16.7186Z" fill="white"></path>
<path d="M72.375 16.7186C71.2041 16.7186 70.1549 16.4579 69.2274 15.9364C68.2999 15.3999 67.5776 14.6698 67.0606 13.7459C66.5436 12.8221 66.2851 11.7939 66.2851 10.6615C66.2851 9.52903 66.5436 8.50088 67.0606 7.57703C67.5776 6.65319 68.2999 5.9305 69.2274 5.40897C70.1549 4.87255 71.2041 4.60433 72.375 4.60433C73.5458 4.60433 74.595 4.87255 75.5226 5.40897C76.4501 5.9454 77.1724 6.67554 77.6894 7.59938C78.2064 8.52323 78.4649 9.54393 78.4649 10.6615C78.4649 11.7939 78.2064 12.8221 77.6894 13.7459C77.1724 14.6698 76.4501 15.3999 75.5226 15.9364C74.595 16.4579 73.5458 16.7186 72.375 16.7186ZM72.375 14.4612C73.0136 14.4612 73.6066 14.3122 74.154 14.0142C74.7015 13.7012 75.1348 13.2617 75.4541 12.6954C75.7887 12.1143 75.9559 11.4363 75.9559 10.6615C75.9559 9.88665 75.7887 9.21611 75.4541 8.64989C75.1348 8.08366 74.7015 7.65154 74.154 7.35352C73.6066 7.04061 73.0136 6.88415 72.375 6.88415C71.7363 6.88415 71.1433 7.04061 70.5959 7.35352C70.0485 7.65154 69.6075 8.08366 69.273 8.64989C68.9537 9.21611 68.794 9.88665 68.794 10.6615C68.794 11.4363 68.9537 12.1143 69.273 12.6954C69.6075 13.2617 70.0485 13.7012 70.5959 14.0142C71.1433 14.3122 71.7363 14.4612 72.375 14.4612Z" fill="white"></path>
<path d="M86.1724 16.7186C85.0015 16.7186 83.9523 16.4579 83.0248 15.9364C82.0972 15.3999 81.375 14.6698 80.858 13.7459C80.341 12.8221 80.0825 11.7939 80.0825 10.6615C80.0825 9.52903 80.341 8.50088 80.858 7.57703C81.375 6.65319 82.0972 5.9305 83.0248 5.40897C83.9523 4.87255 85.0015 4.60433 86.1724 4.60433C87.3432 4.60433 88.3924 4.87255 89.3199 5.40897C90.2475 5.9454 90.9698 6.67554 91.4868 7.59938C92.0037 8.52323 92.2622 9.54393 92.2622 10.6615C92.2622 11.7939 92.0037 12.8221 91.4868 13.7459C90.9698 14.6698 90.2475 15.3999 89.3199 15.9364C88.3924 16.4579 87.3432 16.7186 86.1724 16.7186ZM86.1724 14.4612C86.811 14.4612 87.404 14.3122 87.9514 14.0142C88.4988 13.7012 88.9322 13.2617 89.2515 12.6954C89.586 12.1143 89.7533 11.4363 89.7533 10.6615C89.7533 9.88665 89.586 9.21611 89.2515 8.64989C88.9322 8.08366 88.4988 7.65154 87.9514 7.35352C87.404 7.04061 86.811 6.88415 86.1724 6.88415C85.5337 6.88415 84.9407 7.04061 84.3933 7.35352C83.8459 7.65154 83.4049 8.08366 83.0704 8.64989C82.7511 9.21611 82.5914 9.88665 82.5914 10.6615C82.5914 11.4363 82.7511 12.1143 83.0704 12.6954C83.4049 13.2617 83.8459 13.7012 84.3933 14.0142C84.9407 14.3122 85.5337 14.4612 86.1724 14.4612Z" fill="white"></path>
<path d="M99.7645 21.5465C98.3351 21.5465 97.1491 21.2261 96.2063 20.5854C95.2788 19.9447 94.6554 19.1847 94.336 18.3056L96.6853 17.3445C96.9286 17.9405 97.3164 18.4173 97.8485 18.7749C98.396 19.1475 99.0346 19.3337 99.7645 19.3337C100.829 19.3337 101.658 19.0208 102.251 18.395C102.859 17.784 103.163 16.9198 103.163 15.8022V14.7517H103.026C102.646 15.2882 102.137 15.7128 101.498 16.0258C100.874 16.3238 100.152 16.4728 99.3311 16.4728C98.3579 16.4728 97.4532 16.2269 96.6169 15.7352C95.7806 15.2435 95.1115 14.5506 94.6097 13.6565C94.1232 12.7476 93.8799 11.712 93.8799 10.5497C93.8799 9.38747 94.1232 8.35932 94.6097 7.46528C95.1115 6.55633 95.7806 5.856 96.6169 5.36427C97.4532 4.85765 98.3579 4.60433 99.3311 4.60433C100.137 4.60433 100.859 4.76079 101.498 5.07371C102.137 5.38662 102.646 5.81129 103.026 6.34772H103.163V4.96195H105.558V15.7352C105.558 16.972 105.315 18.0225 104.828 18.8867C104.341 19.7658 103.657 20.4289 102.775 20.876C101.908 21.323 100.905 21.5465 99.7645 21.5465ZM99.7873 14.2377C100.396 14.2377 100.958 14.0961 101.475 13.813C101.992 13.515 102.403 13.0903 102.707 12.539C103.011 11.9728 103.163 11.3097 103.163 10.5497C103.163 9.38747 102.836 8.48598 102.182 7.84525C101.544 7.18961 100.745 6.8618 99.7873 6.8618C99.1638 6.8618 98.5936 7.0108 98.0766 7.30882C97.5596 7.59193 97.1491 8.00915 96.845 8.56048C96.5409 9.11181 96.3888 9.77489 96.3888 10.5497C96.3888 11.3246 96.5409 11.9877 96.845 12.539C97.1491 13.0903 97.5596 13.515 98.0766 13.813C98.5936 14.0961 99.1638 14.2377 99.7873 14.2377Z" fill="white"></path>
<path d="M108.45 0.357619H110.958V16.361H108.45V0.357619Z" fill="white"></path>
<path d="M119.053 16.7186C117.912 16.7186 116.886 16.4579 115.973 15.9364C115.076 15.4148 114.369 14.6996 113.852 13.7906C113.351 12.8668 113.1 11.8312 113.1 10.6838C113.1 9.59608 113.343 8.59028 113.829 7.66644C114.331 6.72769 115.023 5.98265 115.905 5.43132C116.787 4.88 117.791 4.60433 118.916 4.60433C120.087 4.60433 121.098 4.85765 121.949 5.36427C122.816 5.8709 123.47 6.56378 123.911 7.44293C124.367 8.32207 124.595 9.31297 124.595 10.4156C124.595 10.6242 124.572 10.885 124.527 11.1979H115.609C115.7 12.2559 116.08 13.0754 116.749 13.6565C117.433 14.2228 118.224 14.5059 119.121 14.5059C119.836 14.5059 120.452 14.3494 120.969 14.0365C121.501 13.7087 121.927 13.2691 122.246 12.7178L124.367 13.7012C123.82 14.64 123.105 15.3776 122.223 15.914C121.341 16.4504 120.284 16.7186 119.053 16.7186ZM122.041 9.32042C122.01 8.9181 121.881 8.52323 121.653 8.13581C121.425 7.73349 121.075 7.39822 120.604 7.13001C120.147 6.8618 119.585 6.72769 118.916 6.72769C118.11 6.72769 117.426 6.9661 116.863 7.44293C116.316 7.90485 115.935 8.53068 115.723 9.32042H122.041Z" fill="white"></path>
<path d="M53.3776 25.639H56.2971L62.4326 41.6424H59.6043L58.1446 37.5521H51.5529L50.0704 41.6424H47.2421L53.3776 25.639ZM57.2779 35.2276L55.5444 30.4668L54.9058 28.6117H54.7689L54.1303 30.4668L52.3968 35.2276H57.2779Z" fill="white"></path>
<path d="M64.5946 25.639H67.1492V41.6424H64.5946V25.639Z" fill="white"></path>
<path d="M83.3029 42C81.7215 42 80.2846 41.6349 78.9921 40.9048C77.6996 40.1598 76.6809 39.1465 75.9358 37.865C75.2059 36.5836 74.841 35.1755 74.841 33.6407C74.841 32.1059 75.2059 30.7052 75.9358 29.4387C76.6809 28.1572 77.6996 27.144 78.9921 26.3989C80.2846 25.6539 81.7215 25.2814 83.3029 25.2814C84.8843 25.2814 86.3137 25.6539 87.591 26.3989C88.8834 27.144 89.9022 28.1572 90.6473 29.4387C91.3924 30.7052 91.7649 32.1059 91.7649 33.6407C91.7649 35.1755 91.3924 36.5836 90.6473 37.865C89.9174 39.1465 88.9062 40.1598 87.6138 40.9048C86.3213 41.6349 84.8843 42 83.3029 42ZM83.3029 39.6084C84.3825 39.6084 85.3709 39.3551 86.2681 38.8485C87.1652 38.3419 87.8723 37.6415 88.3892 36.7475C88.9062 35.8385 89.1647 34.8029 89.1647 33.6407C89.1647 32.4784 88.9062 31.4503 88.3892 30.5562C87.8723 29.6473 87.1652 28.9395 86.2681 28.4329C85.3709 27.9262 84.3825 27.6729 83.3029 27.6729C82.2233 27.6729 81.235 27.9262 80.3378 28.4329C79.4407 28.9395 78.726 29.6473 78.1938 30.5562C77.6768 31.4503 77.4183 32.4784 77.4183 33.6407C77.4183 34.8029 77.6768 35.8385 78.1938 36.7475C78.726 37.6415 79.4407 38.3419 80.3378 38.8485C81.235 39.3551 82.2233 39.6084 83.3029 39.6084Z" fill="white"></path>
<path d="M92.805 30.2433H95.6105L98.8265 38.4685H98.9177L102.202 30.2433H104.939L100.104 41.6424H97.5948L92.805 30.2433Z" fill="white"></path>
<path d="M111.48 42C110.339 42 109.313 41.7392 108.4 41.2177C107.503 40.6962 106.796 39.981 106.279 39.072C105.777 38.1482 105.526 37.1126 105.526 35.9652C105.526 34.8774 105.77 33.8716 106.256 32.9478C106.758 32.009 107.45 31.264 108.332 30.7127C109.214 30.1614 110.217 29.8857 111.343 29.8857C112.513 29.8857 113.525 30.139 114.376 30.6456C115.243 31.1523 115.897 31.8451 116.338 32.7243C116.794 33.6034 117.022 34.5943 117.022 35.697C117.022 35.9056 116.999 36.1664 116.954 36.4793H108.035C108.127 37.5372 108.507 38.3568 109.176 38.9379C109.86 39.5041 110.651 39.7872 111.548 39.7872C112.263 39.7872 112.878 39.6308 113.395 39.3179C113.928 38.9901 114.353 38.5505 114.673 37.9991L116.794 38.9826C116.246 39.9213 115.532 40.6589 114.65 41.1954C113.768 41.7318 112.711 42 111.48 42ZM114.467 34.6018C114.437 34.1995 114.308 33.8046 114.08 33.4172C113.852 33.0148 113.502 32.6796 113.03 32.4114C112.574 32.1432 112.012 32.009 111.343 32.009C110.537 32.009 109.853 32.2475 109.29 32.7243C108.742 33.1862 108.362 33.812 108.149 34.6018H114.467Z" fill="white"></path>
<path d="M119.25 30.2433H121.645V31.9196H121.759C122.017 31.3385 122.466 30.8617 123.104 30.4892C123.743 30.1018 124.42 29.908 125.134 29.908C125.697 29.908 126.168 29.9825 126.548 30.1316V32.6796C125.879 32.4412 125.279 32.322 124.747 32.322C124.169 32.322 123.652 32.471 123.196 32.769C122.755 33.067 122.405 33.4693 122.146 33.9759C121.888 34.4677 121.759 35.0116 121.759 35.6076V41.6424H119.25V30.2433Z" fill="white"></path>
<path d="M127.47 30.2433H130.276L133.492 38.4685H133.583L136.868 30.2433H139.605L134.769 41.6424H132.26L127.47 30.2433Z" fill="white"></path>
<path d="M142.602 28.5893C142.13 28.5893 141.727 28.4329 141.393 28.12C141.073 27.7921 140.914 27.3973 140.914 26.9353C140.914 26.4734 141.073 26.086 141.393 25.7731C141.727 25.4453 142.13 25.2814 142.602 25.2814C143.073 25.2814 143.468 25.4453 143.788 25.7731C144.122 26.086 144.289 26.4734 144.289 26.9353C144.289 27.3973 144.122 27.7921 143.788 28.12C143.468 28.4329 143.073 28.5893 142.602 28.5893ZM141.347 30.2433H143.856V41.6424H141.347V30.2433Z" fill="white"></path>
<path d="M152.124 42C150.984 42 149.957 41.7392 149.045 41.2177C148.148 40.6962 147.441 39.981 146.924 39.072C146.422 38.1482 146.171 37.1126 146.171 35.9652C146.171 34.8774 146.414 33.8716 146.901 32.9478C147.403 32.009 148.095 31.264 148.977 30.7127C149.858 30.1614 150.862 29.8857 151.987 29.8857C153.158 29.8857 154.169 30.139 155.021 30.6456C155.888 31.1523 156.541 31.8451 156.982 32.7243C157.439 33.6034 157.667 34.5943 157.667 35.697C157.667 35.9056 157.644 36.1664 157.598 36.4793H148.68C148.771 37.5372 149.151 38.3568 149.82 38.9379C150.505 39.5041 151.295 39.7872 152.193 39.7872C152.907 39.7872 153.523 39.6308 154.04 39.3179C154.572 38.9901 154.998 38.5505 155.317 37.9991L157.439 38.9826C156.891 39.9213 156.176 40.6589 155.295 41.1954C154.413 41.7318 153.356 42 152.124 42ZM155.112 34.6018C155.082 34.1995 154.952 33.8046 154.724 33.4172C154.496 33.0148 154.146 32.6796 153.675 32.4114C153.219 32.1432 152.656 32.009 151.987 32.009C151.181 32.009 150.497 32.2475 149.935 32.7243C149.387 33.1862 149.007 33.812 148.794 34.6018H155.112Z" fill="white"></path>
<path d="M158.372 30.2433H161.086L163.435 38.4015H163.526L166.149 30.2433H168.727L171.327 38.4015H171.418L173.767 30.2433H176.436L172.718 41.6424H170.072L167.404 33.4619H167.335L164.69 41.6424H162.089L158.372 30.2433Z" fill="white"></path>
<path d="M182.233 42C180.895 42 179.8 41.7169 178.949 41.1507C178.097 40.5695 177.496 39.8319 177.147 38.9379L179.382 37.9768C179.656 38.5728 180.036 39.0273 180.522 39.3402C181.024 39.6531 181.594 39.8096 182.233 39.8096C182.856 39.8096 183.381 39.7053 183.807 39.4967C184.233 39.2732 184.445 38.9453 184.445 38.5132C184.445 38.096 184.263 37.7682 183.898 37.5298C183.533 37.2914 182.97 37.0828 182.21 36.9039L180.819 36.5687C179.891 36.3452 179.123 35.9503 178.515 35.3841C177.907 34.8178 177.603 34.1026 177.603 33.2384C177.603 32.5678 177.801 31.9792 178.196 31.4726C178.606 30.966 179.154 30.5786 179.838 30.3104C180.522 30.0272 181.267 29.8857 182.073 29.8857C183.153 29.8857 184.103 30.1018 184.924 30.5339C185.746 30.9511 186.339 31.562 186.703 32.3667L184.514 33.3054C184.073 32.4263 183.267 31.9867 182.096 31.9867C181.534 31.9867 181.062 32.0985 180.682 32.322C180.302 32.5455 180.112 32.836 180.112 33.1937C180.112 33.5364 180.256 33.8195 180.545 34.043C180.834 34.2516 181.26 34.4304 181.822 34.5794L183.533 35.0041C184.674 35.2872 185.533 35.7193 186.11 36.3005C186.703 36.8667 187 37.567 187 38.4015C187 39.1167 186.787 39.75 186.361 40.3013C185.951 40.8377 185.381 41.255 184.651 41.553C183.921 41.851 183.115 42 182.233 42Z" fill="white"></path>
<path fill-rule="evenodd" clip-rule="evenodd" d="M18.1093 33.4046C19.1595 35.7814 19.6846 38.3209 19.6846 41.0233C19.6846 38.3209 20.1928 35.7814 21.21 33.4046C22.2594 31.0279 23.6703 28.9605 25.4417 27.2024C27.2139 25.4442 29.2966 24.0605 31.6916 23.0512C34.0865 22.0093 36.646 21.4884 39.3684 21.4884C36.646 21.4884 34.0865 20.9838 31.6916 19.9744C29.2966 18.9326 27.2139 17.5326 25.4417 15.7745C23.6703 14.0163 22.2594 11.9489 21.21 9.57209C20.1928 7.19535 19.6846 4.65581 19.6846 1.95349C19.6846 4.65581 19.1595 7.19535 18.1093 9.57209C17.0928 11.9489 15.6982 14.0163 13.9268 15.7745C12.1554 17.5326 10.0718 18.9326 7.67686 19.9744C5.28193 20.9838 2.72323 21.4884 0 21.4884C2.72323 21.4884 5.28193 22.0093 7.67686 23.0512C10.0718 24.0605 12.1554 25.4442 13.9268 27.2024C15.6982 28.9605 17.0928 31.0279 18.1093 33.4046Z" fill="white"></path>
</svg>