<svg xmlns="http://www.w3.org/2000/svg" width="141" height="24" fill="none"><path fill="#fff" fill-rule="evenodd" d="M12 1c6.0748 0 11 4.9253 11 11 0 6.0748-4.9252 11-11 11-6.0747 0-11-4.9252-11-11C1 5.9253 5.9253 1 12 1Zm0 3.3247a7.6752 7.6752 0 1 0 0 15.3505 7.6752 7.6752 0 0 0 0-15.3505ZM140.731 1h-3.553a.0428.0428 0 0 0-.031.0129.0412.0412 0 0 0-.013.0311v21.5237c0 .0242.021.044.044.044h3.553c.011 0 .022-.0047.031-.0129a.0454.0454 0 0 0 .013-.0311V1.044a.0452.0452 0 0 0-.013-.0311.0463.0463 0 0 0-.031-.0129ZM53.756 6.126a.0132.0132 0 0 0-.0176-.0055.0135.0135 0 0 0-.0033.0044l-6.358 11.3355a.1156.1156 0 0 1-.0419.0434.1155.1155 0 0 1-.0582.016h-3.2197a.118.118 0 0 1-.1034-.0616L37.5926 6.1128a.022.022 0 0 0-.0407.011v16.4329a.0552.0552 0 0 1-.055.055h-3.4463A.0509.0509 0 0 1 34 22.56V1.0649a.0654.0654 0 0 1 .0045-.0248.0656.0656 0 0 1 .0346-.0351.064.064 0 0 1 .0247-.005h4.2207a.1015.1015 0 0 1 .088.0517l7.3139 13.0416a.0314.0314 0 0 0 .0269.0159.0312.0312 0 0 0 .027-.0159l7.3194-13.0526A.0813.0813 0 0 1 53.129 1h4.1624c.011 0 .022.0044.0297.0121a.044.044 0 0 1 .0121.0308v21.5017a.0675.0675 0 0 1-.0418.0616.0706.0706 0 0 1-.0253.0044h-3.4518a.0364.0364 0 0 1-.0253-.011.035.035 0 0 1-.011-.0242c.0022-3.74.0022-9.196.0011-16.3636a.2026.2026 0 0 0-.022-.088l-.0011.0022Zm59.258 16.4868a.0375.0375 0 0 1-.017-.0042.0386.0386 0 0 1-.014-.0112.031.031 0 0 1-.006-.0159.033.033 0 0 1 .001-.0171c.095-.341.29-.9614.585-1.8601a150.007 150.007 0 0 1 8.016-19.6636.0665.0665 0 0 1 .026-.0289.0698.0698 0 0 1 .037-.0107h4.119c.025 0 .051.0071.072.0207a.135.135 0 0 1 .051.0563 148.7665 148.7665 0 0 1 8.565 21.4643.0599.0599 0 0 1-.002.0374.0579.0579 0 0 1-.026.0275.0595.0595 0 0 1-.025.0055h-3.811a.0561.0561 0 0 1-.033-.011.0645.0645 0 0 1-.021-.0286 96.9568 96.9568 0 0 0-1.723-5.4472.0738.0738 0 0 0-.068-.0473h-10.124a.0947.0947 0 0 0-.054.0173.1032.1032 0 0 0-.034.0454 118.1365 118.1365 0 0 0-1.706 5.4252.0653.0653 0 0 1-.023.0334.0646.0646 0 0 1-.038.0128h-3.747Zm10.659-8.5987c2.177 0 3.5.0022 3.971.0044a.035.035 0 0 0 .015-.004.0376.0376 0 0 0 .017-.0246.0398.0398 0 0 0-.001-.0154 146.8695 146.8695 0 0 0-3.969-9.5458c-.006-.011-.015-.0165-.03-.0165s-.025.0055-.031.0165a147.3442 147.3442 0 0 0-3.972 9.5436c-.002.0049-.002.0101-.002.0154.001.0055.003.011.007.0143a.0386.0386 0 0 0 .011.0104c.005.0025.01.0038.015.0039.471-.0022 1.793-.0022 3.969-.0022Zm-35.1087 5.7387.0176.0011a.0406.0406 0 0 1 .0297.0385v2.75a.0498.0498 0 0 1-.0363.0473 9.9756 9.9756 0 0 1-4.1525.2684 5.036 5.036 0 0 1-1.9503-.6996c-1.7523-1.089-2.2154-3.2098-2.2132-5.1425.0022-1.5752.0033-4.103.0022-7.5823a.0449.0449 0 0 0-.0143-.033.0481.0481 0 0 0-.033-.0143h-3.1493a.0573.0573 0 0 1-.0407-.0176.0583.0583 0 0 1-.0165-.0407V6.5605a.0447.0447 0 0 1 .0275-.0407.0446.0446 0 0 1 .0165-.0033h3.1691a.0418.0418 0 0 0 .0418-.0418v-4.653a.0397.0397 0 0 1 .0396-.0396h3.333a.0439.0439 0 0 1 .033.0143.0468.0468 0 0 1 .0143.033v4.6574a.0299.0299 0 0 0 .0297.0297h4.8554a.0455.0455 0 0 1 .044.0451V9.349a.0364.0364 0 0 1-.0374.0363h-4.851a.0416.0416 0 0 0-.0418.0418c.0022 2.2286.0033 4.6662.0022 7.3139 0 .4939.0517.9647.1562 1.4146.2673 1.144 1.0164 1.7116 2.189 1.7732a10.4613 10.4613 0 0 0 2.5355-.176ZM64.0014 15.85c.0902.6886.3036 1.3211.6424 1.8975.7403 1.2595 1.8238 2.0042 3.2483 2.233.5808.0913 1.2375.099 1.9712.022 1.4871-.1562 2.7147-.748 3.8004-1.76a.078.078 0 0 1 .0891-.0132.0753.0753 0 0 1 .0253.0198l1.793 2.167a.0603.0603 0 0 1-.0055.0836 9.4878 9.4878 0 0 1-4.477 2.2605c-1.8831.3927-4.0369.3333-5.7914-.4037-2.7698-1.1616-4.5155-3.718-4.7762-6.699a11.8682 11.8682 0 0 1 .0154-2.299c.2035-1.9052.9955-3.7235 2.354-5.0545 1.716-1.683 4.0183-2.3573 6.3943-2.1406 2.0591.187 3.7531 1.089 4.9719 2.7148 1.485 1.9822 1.8095 4.488 1.716 6.9135a.033.033 0 0 1-.033.033H64.0223l-.0088.0011a.0217.0217 0 0 0-.0121.0231v.0011Zm.044-2.5795h8.4919a.0466.0466 0 0 0 .0176-.0044.043.043 0 0 0 .0264-.0451c-.1804-2.0856-1.32-3.8357-3.5111-4.114-1.7633-.2233-3.3341.4323-4.2878 1.9514a5.478 5.478 0 0 0-.7854 2.156.0501.0501 0 0 0 .0284.0504.051.051 0 0 0 .02.0057Zm38.9766-4.7388a.016.016 0 0 0 .009.0077.0228.0228 0 0 0 .013 0 .0246.0246 0 0 0 .01-.0077.0254.0254 0 0 0 .004-.0121V6.5484c0-.0033 0-.0077.002-.011a.0296.0296 0 0 1 .011-.0143.0307.0307 0 0 1 .018-.0055h3.27a.0442.0442 0 0 1 .04.0268.044.044 0 0 1 .003.016v16.0007a.0483.0483 0 0 1-.015.0354.0489.0489 0 0 1-.035.0152h-3.259a.0331.0331 0 0 1-.025-.011.0374.0374 0 0 1-.011-.0264v-2.1505a.0193.0193 0 0 0-.003-.0104.0273.0273 0 0 0-.007-.0081.0247.0247 0 0 0-.021-.0035.024.024 0 0 0-.013.0088c-1.162 1.617-2.948 2.486-4.9359 2.574-2.5388.1144-4.5727-.825-6.105-2.8182-.7381-.9614-1.2705-2.2055-1.5147-3.4419-.5313-2.706-.1199-5.6672 1.6126-7.8683 1.265-1.606 3.0855-2.5564 5.1337-2.706 2.2858-.1672 4.3823.55 5.8183 2.3815Zm-.033 8.393v-4.7113a.3573.3573 0 0 0-.028-.1331c-.695-1.6357-2.095-2.673-3.8477-2.8633-2.486-.2717-4.5573 1.078-5.1535 3.5057-.7337 2.9898.2761 6.963 4.0084 7.194 2.1578.1342 4.1738-.8613 5.0078-2.9359a.1378.1378 0 0 0 .013-.0561Z" clip-rule="evenodd"></path></svg>