<svg xmlns="http://www.w3.org/2000/svg" width="203" height="33" fill="none"><path fill="#fff" fill-rule="evenodd" d="M189.432 3.663h-3.833v23.172h3.833V3.663ZM58.9249 9.8909h2.1853v3.389h-2.1853c-1.3554 0-2.7228.3368-3.6053 1.2754-.8813.9375-1.2133 2.3764-1.2133 3.8142 0 1.4378.3189 2.8756 1.2133 3.8131.8957.9386 2.2499 1.2754 3.6041 1.2754 1.3554 0 2.7227-.3368 3.604-1.2754.8825-.9375 1.2145-2.3765 1.2145-3.8131V4.4381h3.8333V26.835h-3.8333v-1.4259h-.7034a4.148 4.148 0 0 1-.2293.2377c-.9589.8753-2.4289 1.1882-3.8727 1.1882-2.2618 0-4.5236-.5637-6.0067-2.1256-1.4808-1.5644-2.0063-3.9659-2.0063-6.3543 0-2.3884.5374-4.7767 2.0063-6.353 1.4831-1.562 3.7449-2.1137 5.9948-2.1137v.0023ZM117.277 26.233h-2.185v-3.3879h2.185c1.355 0 2.723-.3379 3.603-1.2753.883-.9375 1.215-2.3765 1.215-3.8143 0-1.4378-.319-2.8756-1.215-3.8142-.894-.9374-2.248-1.2754-3.603-1.2754-1.354 0-2.722.338-3.604 1.2754-.881.9386-1.214 2.3764-1.214 3.8142v13.9182h-3.833V9.2901h3.833v1.4258h.704c.071-.0801.145-.1574.223-.2316l.006-.006c.958-.8754 2.428-1.1882 3.872-1.1882 2.263 0 4.524.5624 6.007 2.1256 1.482 1.5644 2.006 3.9647 2.006 6.3531 0 2.3883-.537 4.7767-2.006 6.3518-1.469 1.5763-3.744 2.1125-5.994 2.1125Zm-30.468-6.802v-1.3614c0-2.4648-.5493-4.9403-2.0946-6.5656-1.5345-1.6265-3.8978-2.2009-6.2372-2.2009-2.3382 0-4.6907.5876-6.236 2.2009-1.5465 1.6121-2.0958 4.1008-2.0958 6.5644 0 2.4636.5613 4.9391 2.0958 6.5656 1.5333 1.6241 3.8978 2.2009 6.236 2.2009 2.3394 0 4.7027-.5887 6.2372-2.2009.7918-.8263 1.316-1.8892 1.648-3.0642h-3.7832a6.0111 6.0111 0 0 1-.3582.4382c-.9196.9745-2.3383 1.3256-3.7438 1.3256-1.4056 0-2.8242-.3631-3.745-1.3256-.9195-.9637-1.2515-2.4636-1.2515-3.9396s.332-2.964 1.2527-3.9384c.9196-.9757 2.3382-1.3255 3.7438-1.3255 1.4055 0 2.8242.3498 3.745 1.3255.6388.6747.9959 1.6002 1.15 2.5878h-6.7735v2.7132H86.809Zm19.248-1.3626v1.3626H95.8466v-2.7132h6.7724c-.154-.9876-.511-1.9131-1.15-2.5878-.92-.9757-2.3396-1.3255-3.7452-1.3255-1.4055 0-2.8242.3498-3.7449 1.3255-.9195.9744-1.2527 2.4636-1.2527 3.9384 0 1.476.3332 2.9759 1.2539 3.9396.9195.9625 2.3382 1.3256 3.7437 1.3256 1.4056 0 2.8242-.3511 3.7452-1.3256.128-.1385.242-.2878.357-.4382h3.783c-.332 1.1762-.856 2.2379-1.648 3.0642-1.534 1.6122-3.898 2.2009-6.2372 2.2009-2.3394 0-4.7027-.5756-6.236-2.2009-1.5345-1.6265-2.097-4.102-2.097-6.5656 0-2.4636.5494-4.9523 2.0958-6.5644 1.5477-1.6133 3.8978-2.2009 6.2372-2.2009 2.3392 0 4.7032.5744 6.2362 2.2009 1.548 1.6241 2.097 4.1008 2.097 6.5644Zm36.383 7.466c-1.533.9625-3.897 1.3005-6.236 1.3005-2.338 0-4.678-.3511-6.224-1.3017-1.547-.9493-2.096-2.4241-2.096-3.8763h4.499c0 .5637.268 1.1381.984 1.5011.716.363 1.839.5004 2.94.5004 1.098 0 2.21-.1374 2.937-.5016.73-.3618.986-.9362.986-1.4999 0-.5612-.256-1.1368-.984-1.4999-.729-.363-1.943-.5003-3.042-.5003-2.122 0-4.255-.3499-5.649-1.3017-1.393-.9494-1.891-2.4242-1.891-3.8751 0-1.4509.498-2.9138 1.891-3.8763 1.394-.9637 3.527-1.3017 5.649-1.3017 2.121 0 4.256.3511 5.648 1.3017 1.394.9493 1.892 2.4254 1.892 3.8763h-3.898c0-.5625-.242-1.1249-.894-1.5011-.652-.3618-1.661-.5004-2.658-.5004-.998 0-2.007.1254-2.659.5016-.664.3618-.895.9374-.895 1.4999 0 .5613.243 1.1249.895 1.4999.651.363 1.572.5015 2.569.5015 2.339 0 4.703.3487 6.236 1.2993 1.546.9506 2.097 2.4266 2.097 3.8763 0 1.451-.562 2.9138-2.097 3.8775Zm21.342-7.466v1.3626h-10.21v-2.7132h6.774c-.154-.9876-.513-1.9131-1.15-2.5878-.921-.9757-2.34-1.3255-3.745-1.3255-1.406 0-2.826.3498-3.745 1.3255-.92.9744-1.252 2.4636-1.252 3.9384 0 1.476.332 2.9759 1.252 3.9396.919.9625 2.339 1.3256 3.743 1.3256 1.407 0 2.826-.3511 3.747-1.3256.126-.1385.242-.2878.358-.4382h3.782c-.333 1.1762-.856 2.2379-1.648 3.0642-1.533 1.6122-3.899 2.2009-6.239 2.2009-2.337 0-4.702-.5756-6.236-2.2009-1.533-1.6265-2.094-4.102-2.094-6.5656 0-2.4636.549-4.9523 2.094-6.5644 1.548-1.6133 3.899-2.2009 6.236-2.2009 2.341 0 4.706.5744 6.239 2.2009 1.545 1.6241 2.094 4.1008 2.094 6.5644Zm19.247 1.3626v-1.3614c0-2.4648-.549-4.9403-2.095-6.5656-1.534-1.6265-3.899-2.2009-6.237-2.2009-2.339 0-4.69.5876-6.236 2.2009-1.547 1.6121-2.097 4.1008-2.097 6.5644 0 2.4636.563 4.9391 2.097 6.5656 1.534 1.6241 3.897 2.2009 6.236 2.2009 2.338 0 4.703-.5887 6.237-2.2009.792-.8263 1.316-1.8892 1.648-3.0642h-3.783l-.014.0191c-.111.1433-.221.2866-.344.4179-.92.9757-2.337 1.3256-3.744 1.3256-1.405 0-2.824-.3619-3.745-1.3256-.919-.9625-1.252-2.4624-1.252-3.9384s.333-2.964 1.252-3.9384c.921-.9757 2.34-1.3255 3.745-1.3255 1.407 0 2.824.3498 3.744 1.3255.64.6747.998 1.6002 1.151 2.5878h-6.773v2.7132h10.21Zm19.234 7.4039-6.287-9.2907 6.287-7.4661h-4.741l-6.288 7.4649 6.288 9.2907 4.741.0012Z" clip-rule="evenodd"></path><path fill="#fff" d="M44.1417 3.1173c-.4684-.2287-.6712.2084-.9442.4315-.094.072-.1733.166-.2526.2508-.686.7321-1.4864 1.2116-2.532 1.1544-1.5288-.0848-2.8344.3947-3.9888 1.5639-.2453-1.4421-1.0604-2.3015-2.2996-2.8547-.6492-.2877-1.3057-.5736-1.7612-1.1987-.3172-.4445-.4038-.9405-.5624-1.4274-.1014-.295-.2029-.5956-.5403-.6454-.3689-.0572-.5127.2508-.6566.509-.5772 1.0548-.8003 2.2166-.7782 3.3931.0498 2.6482 1.1674 4.7579 3.3895 6.2572.2527.1715.3172.3448.2379.5956-.1512.5164-.3319 1.018-.4905 1.5362-.1014.3301-.2527.4001-.6067.2581a10.1896 10.1896 0 0 1-3.2014-2.176c-1.5804-1.527-3.0078-3.2125-4.7892-4.5329a20.9815 20.9815 0 0 0-1.2706-.8686c-1.8165-1.7648.2397-3.2143.7155-3.3858.4979-.1807.1715-.7966-1.4366-.7893-1.608.0074-3.0796.544-4.9551 1.2614a5.6362 5.6362 0 0 1-.8575.2527 17.698 17.698 0 0 0-5.3166-.1881c-3.4762.3872-6.2516 2.0322-8.293 4.8371-2.4527 3.3711-3.03 7.2031-2.3236 11.1975.7432 4.212 2.8934 7.6992 6.1962 10.4248 3.4264 2.8271 7.371 4.212 11.8725 3.9464 2.7329-.1567 5.7776-.5237 9.2095-3.43.8667.4315 1.774.603 3.2825.7321 1.1618.1088 2.2794-.0553 3.1443-.2361 1.3554-.2876 1.2613-1.5435.7726-1.7722-3.974-1.8515-3.1018-1.0972-3.8966-1.7076 2.0212-2.39 5.064-4.8722 6.2553-12.9144.0922-.6399.0129-1.0419 0-1.5583-.0074-.3135.0645-.437.4241-.4721a7.6951 7.6951 0 0 0 2.8492-.8759c2.5744-1.407 3.6145-3.716 3.8597-6.4858.0369-.4241-.0073-.8594-.4555-1.0825ZM21.7043 28.0461c-3.8523-3.028-5.7204-4.0257-6.4913-3.9833-.7229.0443-.5919.8686-.4334 1.4071.166.5311.3818.8962.6842 1.3628.2102.308.3541.7671-.2084 1.112-1.2411.7672-3.3968-.2582-3.4983-.308-2.5098-1.479-4.6103-3.43-6.0874-6.0985-1.4273-2.5688-2.2572-5.324-2.3937-8.2653-.0369-.7119.1715-.9627.8797-1.0917a8.6622 8.6622 0 0 1 2.8196-.072c3.9317.5754 7.2769 2.3328 10.0837 5.1156 1.6007 1.586 2.8123 3.4799 4.0607 5.3314 1.3278 1.9658 2.7552 3.8394 4.5735 5.3737.6417.5385 1.1525.9479 1.6431 1.2485-1.479.166-3.9465.2029-5.632-1.1323ZM23.5484 16.17a.5644.5644 0 0 1 .7654-.5293.5571.5571 0 0 1 .3688.5311.565.565 0 0 1-.3531.5252.5642.5642 0 0 1-.2186.041.5594.5594 0 0 1-.5206-.3509.562.562 0 0 1-.0419-.2171Zm5.7353 2.9432c-.3689.1494-.7358.2785-1.0881.2951a2.297 2.297 0 0 1-1.4716-.4684c-.5053-.4242-.8667-.6602-1.0179-1.3979a3.1874 3.1874 0 0 1 .0295-1.0843c.1291-.6031-.0148-.9903-.4408-1.3407-.3448-.2877-.7856-.367-1.2687-.367a1.0304 1.0304 0 0 1-.4684-.1438.4675.4675 0 0 1-.2519-.2834.4675.4675 0 0 1 .0416-.3768c.0517-.0996.2951-.343.3541-.3873.6565-.3725 1.4144-.2508 2.1134.0295.6491.2656 1.1396.7524 1.8459 1.4421.7211.8317.852 1.0622 1.2633 1.6855.3245.4887.6196.9903.8206 1.5639.1235.3596-.0351.6528-.461.8335Z"></path></svg>