<svg xmlns="http://www.w3.org/2000/svg" viewBox="0 0 900 900">

<defs><radialGradient id="halo" cx="50%" cy="45%" r="55%"><stop offset="0" stop-color="#F5E6D7" stop-opacity=".58"></stop><stop offset=".46" stop-color="#D99A6C" stop-opacity=".22"></stop><stop offset="1" stop-color="#010109" stop-opacity="0"></stop></radialGradient></defs>
<rect width="900" height="900" fill="none"></rect><circle cx="450" cy="450" r="380" fill="url(#halo)"></circle>
<g stroke="#F5E6D7" stroke-width="2" stroke-linecap="round" fill="none"><path class="ray" style="--i:0;--r:-78deg" d="M450 560C378 432 270 314 158 218"></path><path class="ray" style="--i:1;--r:-62deg" d="M450 560C386 400 322 270 242 118"></path><path class="ray" style="--i:2;--r:-46deg" d="M450 560C408 380 390 224 354 70"></path><path class="ray" style="--i:3;--r:-30deg" d="M450 560C430 380 452 224 450 46"></path><path class="ray" style="--i:4;--r:-14deg" d="M450 560C482 380 520 224 560 70"></path><path class="ray" style="--i:5;--r:2deg" d="M450 560C528 400 602 270 662 118"></path><path class="ray" style="--i:6;--r:18deg" d="M450 560C560 432 656 314 742 218"></path></g>
<g fill="#8AC7C2"><circle class="node" cx="158" cy="218" r="8"></circle><circle class="node" cx="242" cy="118" r="8"></circle><circle class="node" cx="354" cy="70" r="8"></circle><circle class="node" cx="450" cy="46" r="8"></circle><circle class="node" cx="560" cy="70" r="8"></circle><circle class="node" cx="662" cy="118" r="8"></circle><circle class="node" cx="742" cy="218" r="8"></circle></g>
<path d="M450 445C424 500 420 558 432 616C438 646 448 672 450 720C452 672 462 646 468 616C480 558 476 500 450 445Z" fill="#010109"></path><circle cx="450" cy="432" r="22" fill="#010109"></circle><circle cx="450" cy="432" r="5" fill="#8AC7C2"></circle></svg>